<svg xmlns="http://www.w3.org/2000/svg" version="1.1" xmlns:xlink="http://www.w3.org/1999/xlink" xmlns:svgjs="http://svgjs.com/svgjs" width="1920" height="1080" preserveAspectRatio="none" viewBox="0 0 1920 1080"><g mask="url(&quot;#SvgjsMask1051&quot;)" fill="none"><rect width="1920" height="1080" x="0" y="0" fill="#0e2a47"></rect><path d="M4 1080L1084 0L1960 0L880 1080z" fill="url(#SvgjsLinearGradient1052)"></path><path d="M758.6 1080L1838.6 0L2158.1 0L1078.1 1080z" fill="url(#SvgjsLinearGradient1052)"></path><path d="M1850 1080L770 0L360.5 0L1440.5 1080z" fill="url(#SvgjsLinearGradient1053)"></path><path d="M1272.4 1080L192.4000000000001 0L-182.5999999999999 0L897.4000000000001 1080z" fill="url(#SvgjsLinearGradient1053)"></path><path d="M959.7160074646872 1080L1920 119.71600746468721L1920 1080z" fill="url(#SvgjsLinearGradient1052)"></path><path d="M0 1080L960.2839925353128 1080L 0 119.71600746468721z" fill="url(#SvgjsLinearGradient1053)"></path></g><defs><mask id="SvgjsMask1051"><rect width="1920" height="1080" fill="#ffffff"></rect></mask><linearGradient x1="0%" y1="100%" x2="100%" y2="0%" id="SvgjsLinearGradient1052"><stop stop-color="rgba(15, 70, 185, 0.2)" offset="0"></stop><stop stop-opacity="0" stop-color="rgba(15, 70, 185, 0.2)" offset="0.66"></stop></linearGradient><linearGradient x1="100%" y1="100%" x2="0%" y2="0%" id="SvgjsLinearGradient1053"><stop stop-color="rgba(15, 70, 185, 0.2)" offset="0"></stop><stop stop-opacity="0" stop-color="rgba(15, 70, 185, 0.2)" offset="0.66"></stop></linearGradient></defs></svg>